<svg height="840" width="2500" xmlns="http://www.w3.org/2000/svg" viewBox="-0.0010000000000000009 0.233 500.042 167.539"><path d="M203.696 21.677c-4.222 0-7.032 1.224-7.047 2.906v32.185h-33.373V27.252l-.01-2.659c0-1.889-3.32-2.907-7.05-2.907-3.457 0-7.057.919-7.057 2.907v78.258c0 1.98 3.707 2.88 7.056 2.88 3.434 0 7.06-.89 7.06-2.894v-34.95h33.374v34.936c0 1.912 3.454 2.898 7.056 2.898 3.762 0 7.06-1.012 7.06-2.893V24.584c-.007-1.804-3.108-2.907-7.07-2.907zM436.41 42.482c-5.843 0-12.612 2.215-15.67 6.268l-.006-3.178c0-1.047-.584-2.017-2.274-2.017h-4.332v.01c-.038 0-.08-.01-.12-.01-3.692 0-6.68 2.745-6.734 6.148h-.01v53.164c0 1.965 3.824 2.742 6.744 2.742 2.402 0 6.74-.609 6.74-2.696V62.695c1.483-2.929 5.146-6.376 9.765-7.753 3.785-1.124 8.351-1.047 11.105-.229 2.026.612 3.548-2.042 3.548-5.598 0-3.434-.794-6.094-2.805-6.286-2.012-.19-3.81-.348-5.952-.348zm-65.54.05c-9.084 0-15.896 2.589-20.452 7.758-4.559 5.177-6.84 12.775-6.84 22.777v1.926c0 10.698 2.695 18.483 8.087 23.354 5.382 4.88 13.504 7.309 24.363 7.309 1.796 0 3.592-.052 5.387-.197a45.414 45.414 0 0 0 4.76-.606c1.398-.26 2.783-.585 4.135-1.036a22.042 22.042 0 0 0 3.535-1.494 17.18 17.18 0 0 0 1.545-.927c.887-.596 1.652-1.258 2.164-2.214.504-.94.766-2.004.935-3.044.444-2.853-.139-5.306-1.348-5.498a1.068 1.068 0 0 0-.71.106c-5.65 2.967-11.112 4.337-18.523 4.337-6.927 0-11.913-1.239-14.95-3.709-3.036-2.47-4.727-6.86-5.072-13.177h37.32c1.873 0 3.466-1.491 3.466-3.365v-1.531c0-10.416-2.368-18.152-7.093-23.199s-11.625-7.57-20.71-7.57zm104.983 0c-3.74 0-8.068.274-13.007.84-3.457.39-7.145 1.208-8.445 1.522-1.538.367-2.919 2.73-3.196 5.506-.305 3.02.177 5.711 1.761 5.704.22 0 .622-.1.683-.115 6.277-1.812 13.576-2.898 19.435-2.898 4.803 0 8.215.79 10.233 2.38s3.03 4.014 3.03 7.271v8.496c-5.706-2.15-11.005-3.219-15.9-3.219-7.081 0-12.573 1.506-16.481 4.512-3.906 2.998-5.855 7.296-5.855 12.878v2.054c0 3.396.712 6.306 2.127 8.73 1.423 2.424 3.408 4.304 5.983 5.635 2.578 1.33 5.4 2.3 8.468 2.897 3.073.597 6.515.903 10.339.903 4.329 0 8.77-.352 13.319-1.063 2.096-.329 6.083-1.18 6.198-1.21 3.228-.742 5.496-3.523 5.465-6.314V62.753c-.014-6.83-2-11.901-5.97-15.236-3.969-3.319-10.034-4.983-18.187-4.983zm-249.035.092c-2.792 0-7.116.954-7.047 3.118.084 2.638 1.432 11.813 2.778 17.495 1.377 5.797 2.722 10.822 4.213 15.043 1.492 4.221 3.143 8.236 4.97 12.044 1.82 3.816 3.38 6.808 4.681 8.973 1.3 2.164 2.516 4.004 3.65 5.533-3.266 4.795-9.896 12.927-15.616 19.55 0 0-.483.511-.445 1.1.1 1.752 3.373 3.182 7.533 3.182 3.427 0 6.242-1.108 7.923-3.173 4.169-5.314 6.697-8.614 8.885-11.558 2.462-3.304 5.566-7.935 9.298-13.892 3.74-5.957 6.507-11.235 8.312-15.83 1.805-4.605 3.419-10.096 4.842-16.474a89.583 89.583 0 0 0 2.131-19.554v-2.37c-.007-2.28-3.025-3.187-6.748-3.187-3.221 0-6.694 1.016-6.809 3.127-.03.497-.092 1.72-.092 1.72-.969 18.582-4.78 33.595-11.755 45.562 0 0-5.427-8.418-10.169-25.281-2.76-9.827-3.557-22.04-3.557-22.048 0-2.577-3.705-3.081-6.979-3.081zm77.295.16c-3.93 0-8.06.352-12.375 1.055-2.201.36-6.13 1.275-6.13 1.275-2.905.795-4.887 3.016-4.887 5.777v75.034c0 1.805 3.48 2.719 6.8 2.719 3.662 0 6.79-1.075 6.79-2.719V103.73c5.514 1.24 10.53 1.857 15.056 1.857 8.613 0 15.15-2.788 19.6-8.362 4.458-5.575 6.685-13.49 6.685-23.744v-1.477c0-4.275-.541-8.082-1.628-11.439-1.1-3.35-2.579-6.135-4.452-8.33-1.88-2.202-4.166-4.014-6.872-5.451a32.052 32.052 0 0 0-8.633-3.077c-3.052-.62-6.367-.921-9.954-.921zM371.647 53.1c8.658 0 13.109 5.285 13.37 15.845H357.76c.345-5.345 1.637-9.321 3.879-11.93 2.239-2.607 5.574-3.915 10.008-3.915zm-67.67.188c5.298 0 9.53 1.54 12.695 4.622 3.16 3.074 4.74 7.815 4.74 14.231v1.275c0 14.445-5.38 21.672-16.147 21.672-4.061 0-7.72-.582-10.962-1.729V54.766c3.204-.98 6.43-1.477 9.674-1.477zm170.719 24.007c5.237 0 9.121.797 11.654 2.38v16.418c-3.824.986-7.257 1.48-10.302 1.48-9.098 0-13.653-3.394-13.653-10.177v-.573c0-3.052 1.042-5.4 3.131-7.052 2.08-1.652 5.14-2.476 9.17-2.476z" fill="#ffffff"></path><path d="M340.772 117.458c-1.95 0-3.64.629-3.64 1.462v36.89c0 .849 1.628 1.536 3.64 1.536s3.64-.678 3.64-1.527v-21.393c1.791-.925 3.579-1.352 5.245-1.352 2.777 0 4.131 1.485 4.131 4.383v18.376c0 .849 1.62 1.522 3.632 1.522 2.011 0 3.64-.687 3.64-1.536v-17.871c0-2.96-.803-5.372-2.347-7.162s-3.94-2.714-7.144-2.714c-2.532 0-4.931.621-7.156 1.852v-10.98c0-.757-1.683-1.486-3.64-1.486zm98.917 9.857c-2.124 0-4.358.292-6.689.88-1.927.49-3.212.886-4.566 1.56-1.507.741-1.426 2.3-1.426 2.3v23.975c0 .75 1.439 1.361 3.223 1.361 1.772 0 3.218-.604 3.218-1.361v-22.108c.627-.321 1.505-.617 2.636-.885 1.132-.275 2.144-.413 3.03-.413 1.844 0 3.206.382 4.086 1.147.878.772 1.32 1.842 1.32 3.218v19.04c0 .75 1.437 1.362 3.219 1.362s3.218-.604 3.218-1.361v-21.618c.65-.443 1.533-.857 2.664-1.224 1.124-.374 2.126-.564 2.99-.564 1.842 0 3.217.556 4.121 1.665.901 1.109 1.353 2.664 1.353 4.644v17.097c0 .75 1.441 1.361 3.223 1.361 1.774 0 3.218-.604 3.218-1.361a2.017 2.017 0 0 1-.01-.143V138.36c0-3.48-.923-6.194-2.782-8.129-1.857-1.942-4.713-2.916-8.551-2.916-3.059 0-6.216.665-9.495 2.004-1.897-1.339-4.566-2.004-8-2.004zm-56.694.151c-1.768 0-3.824.132-6.157.4-1.637.183-3.381.574-3.998.72-.728.175-1.386 1.292-1.518 2.608-.143 1.43.088 2.708.84 2.7.105 0 .285-.047.315-.055 2.977-.856 6.434-1.37 9.211-1.37 2.27 0 3.89.378 4.846 1.127.956.75 1.43 1.894 1.43 3.439v4.02c-2.699-1.017-5.206-1.517-7.532-1.517-3.357 0-5.956.71-7.799 2.132-1.852 1.422-2.778 3.455-2.778 6.093v.981c0 1.606.335 2.98 1.008 4.126a6.837 6.837 0 0 0 2.838 2.673c1.216.627 2.554 1.086 4.007 1.376 1.453.283 3.085.426 4.897.426 2.05 0 4.153-.168 6.308-.504.996-.153 2.876-.558 2.93-.573 1.53-.352 2.598-1.666 2.581-2.99v-16.234c0-3.235-.94-5.637-2.82-7.212-1.88-1.575-4.748-2.366-8.61-2.366zm105.565 0c-1.768 0-3.824.132-6.158.4-1.636.183-3.382.574-4.002.72-.725.175-1.382 1.292-1.513 2.608-.146 1.43.086 2.708.834 2.7.108 0 .29-.047.321-.055 2.974-.856 6.432-1.37 9.207-1.37 2.279 0 3.895.378 4.85 1.127.956.75 1.426 1.894 1.426 3.439v4.02c-2.7-1.017-5.206-1.517-7.533-1.517-3.357 0-5.956.71-7.798 2.132-1.85 1.422-2.774 3.455-2.774 6.093v.981c0 1.606.335 2.98 1.008 4.126a6.837 6.837 0 0 0 2.838 2.673c1.216.627 2.554 1.086 4.007 1.376 1.454.283 3.08.426 4.892.426 2.05 0 4.152-.168 6.31-.504.994-.153 2.875-.558 2.929-.573 1.528-.352 2.6-1.666 2.586-2.99v-16.234c0-3.235-.94-5.637-2.82-7.212-1.883-1.575-4.749-2.366-8.61-2.366zm-71.253.225c-2.76 0-5.959 1.045-7.405 2.957l-.01-1.499c0-.497-.272-.954-1.067-.954h-2.105c-1.744 0-3.156 1.301-3.186 2.907v25.12c0 .933 1.81 1.302 3.186 1.302 1.132 0 3.191-.293 3.191-1.28v-19.003c.702-1.384 2.434-3.013 4.613-3.663 1.788-.528 3.944-.496 5.245-.106.955.283 1.673-.972 1.673-2.654 0-1.621-.372-2.882-1.32-2.967-.949-.084-1.799-.16-2.815-.16zm-103.474.197c-1.826 0-3.737.17-5.74.49-1.026.17-2.856.597-2.856.597-1.352.367-2.27 1.402-2.27 2.686v34.845c0 .841 1.61 1.266 3.155 1.266 1.7 0 3.154-.501 3.154-1.266V156.2c2.561.573 4.893.866 6.997.866 4 0 7.035-1.303 9.1-3.888 2.073-2.592 3.105-6.262 3.105-11.026v-.688c.007-1.988-.248-3.753-.752-5.314s-1.193-2.852-2.063-3.869a10.67 10.67 0 0 0-3.196-2.53 14.867 14.867 0 0 0-4.016-1.431c-1.416-.283-2.957-.431-4.617-.431zm-.06 4.878c1.24 0 2.348.187 3.334.546.988.36 1.85.895 2.586 1.614 1.467 1.43 2.2 3.638 2.2 6.62v.592h.01c0 6.721-2.503 10.077-7.52 10.077-1.889 0-3.583-.267-5.098-.802v-.032h-.009v-17.922c1.49-.452 2.99-.693 4.498-.693zm68.676 11.16c2.48 0 4.323.373 5.525 1.123v7.776h-.01c-1.812.466-3.432.706-4.878.706-4.305 0-6.464-1.607-6.464-4.819v-.275c0-1.445.492-2.555 1.485-3.342.986-.78 2.431-1.17 4.342-1.17zm105.565 0c2.479 0 4.32.373 5.52 1.123v7.776h-.01c-1.811.466-3.43.706-4.873.706-4.307 0-6.464-1.607-6.464-4.819v-.275c0-1.445.49-2.555 1.485-3.342.986-.78 2.431-1.17 4.342-1.17z" fill="#00BFDF"></path><path d="M110.288 52.832c-2.746 0-5.514 1.093-7.74 3.112-2.087 1.897-3.57 4.351-4.664 6.967 5.001 3.839 9.276 8.649 11.999 14.346a40.264 40.264 0 0 1 2.148 5.49c.375 1.232.696 2.486.94 3.755 2.915-3.043 5.438-6.477 7.166-10.3 2.975-6.577 2.623-15.035-2.707-20.372-2.041-2.042-4.58-2.998-7.142-2.998zM67.318.233c-4.458 0-8.832.964-12.258 3.725-8.656 6.974-7.234 20.471-11.348 29.884-2.837 6.493-7.104 12.274-12.81 16.518-1.567 1.163-3.165 2.287-4.824 3.312-1.553.955-3.159 1.835-4.834 2.569a28.746 28.746 0 0 1-5.047 1.682 27.724 27.724 0 0 1-5.49.673c-.2.008-.398.008-.597.008-1.56 0-3.112-.13-4.657-.336-.512-.07-1.025-.146-1.545-.146-.176 0-.36.008-.535.03-1.132.146-2.24.72-2.807 1.737a2.928 2.928 0 0 0-.359 1.093c-.03.23-.038.321-.038.321.803 6.753 5.055 12.58 10.752 16.274 2.172-6.279 7.448-10.844 12.992-14.278 6.691-4.183 14.071-7.242 21.726-9.13 5.888-1.453 11.968-2.256 18.001-2.256 2.249 0 4.497.114 6.722.344 2.493-3.02 5.147-5.911 8.13-8.45a42.798 42.798 0 0 1 2.944-2.294c4.68-3.32 10.407-5.942 16.234-5.95h.03c6.004 0 11.831 1.866 16.61 5.521 5.644 4.313 9.453 10.798 10.768 17.75 2.065 10.935-1.07 22.98-7.976 31.675-1.109 1.392-2.31 2.707-3.525 4a29.665 29.665 0 0 1-.757 5.445 28.729 28.729 0 0 1-1.92 5.513c-.382.81-.795 1.599-1.254 2.37.107-.037.214-.076.313-.121 1.056-.452 2.05-1.148 2.952-1.851.543-.42 1.193-1.01 1.598-1.583.008-.016.023-.03.031-.046 6.34-8.993 11.723-22.521 12.465-34.382.986-15.608-3.548-32.188-13.191-44.622a66.236 66.236 0 0 0-3.97-4.688C100.485 10.473 87.86 3.384 74.3.914 72.03.5 69.66.234 67.318.234z" fill="#7fe0ee"></path><path d="M112.978 86.51c-2.401 2.516-5.093 4.642-7.83 6.783-.544.428-1.094.856-1.63 1.3-2.439 1.98-4.833 4.091-6.584 6.737-.849 1.285-1.53 2.76-1.904 4.26-.512 2.003-.505 4.32.665 6.095 1.216 1.842 3.029 2.553 4.986 2.553 1.522 0 3.12-.428 4.58-1.093.162-.145.314-.26.468-.405a21.234 21.234 0 0 0 3.762-4.62l.16-.274c-.428.145-.88.237-1.315.237-.367 0-.719-.062-1.055-.192-1.04-.413-1.575-1.46-1.514-2.546.038-.734.306-1.43.627-2.095 1.33-2.769 3.525-4.94 5.659-7.097.52-.528 1.017-1.093 1.53-1.636.007-.092.007-.176.014-.268a33.294 33.294 0 0 0-.29-5.781 43.655 43.655 0 0 0-.329-1.958zm-42.61-34.244a179.365 179.365 0 0 0-3.846 4.864c-7.242 9.436-16.006 18.598-27.453 22.697-3.939 1.43-8.152 2.217-12.343 2.217-4.091 0-8.16-.75-11.906-2.378a26.641 26.641 0 0 1-3.908-2.096 17.167 17.167 0 0 0-.459 1.545c-2.875 11.372 3.502 23.683 11.203 31.744 5.804 6.072 13.1 10.6 20.938 13.658 5.147 1.713 10.76 2.661 16.327 2.661 12.817 0 25.373-5.009 31.385-17.198 2.845-5.766 3.655-12.243 3.992-18.59.336-6.401.183-12.855 1.147-19.21.39-2.577.971-5.132 1.827-7.594.192-.558.406-1.109.635-1.66a51.258 51.258 0 0 0-5.139-3.464c-6.951-4.106-14.575-6.393-22.398-7.196z" fill="#ffffff"></path><path d="M114.516 104.296c-.413.574-1.056 1.155-1.599 1.583-.902.704-1.896 1.392-2.952 1.85-.099.047-.206.085-.313.123l-.16.275a21.215 21.215 0 0 1-3.763 4.62c-.16.145-.314.26-.467.405h.008a3.82 3.82 0 0 0 .306-.146 15.547 15.547 0 0 0 3.762-2.638c.146-.138.291-.275.421-.405 1.606-1.56 3.212-3.48 4.757-5.667zM.038 63.261c-.016.329-.023.658-.031.987-.008.328-.008.657-.008.994 0 .329.008.665.016.994.007.336.015.665.03 1.002.016.336.03.673.054 1.009.023.329.038.665.069 1.002A62.995 62.995 0 0 0 2.56 81.997a67.232 67.232 0 0 0 7.83 17.015 65.233 65.233 0 0 0 3.664 5.1c4.917 6.187 10.996 11.425 17.802 15.432.314.176.62.344.941.513 1.537.818 3.066 1.667 4.642 2.416.466.214.925.42 1.392.627 1.216.52 2.477.995 3.762 1.423-7.83-3.06-15.134-7.579-20.938-13.658-7.7-8.06-14.078-20.372-11.203-31.744.13-.528.29-1.04.459-1.545 0-.007-.146-.1-.16-.107a1.27 1.27 0 0 0-.17-.107c-.106-.076-.22-.145-.328-.222l-.642-.459c-.214-.153-.42-.313-.627-.474s-.413-.329-.612-.497c-.199-.168-.398-.336-.597-.512s-.39-.352-.58-.528-.383-.36-.567-.543-.367-.374-.543-.566c-.175-.19-.351-.382-.527-.58s-.344-.39-.505-.597a18.951 18.951 0 0 1-.49-.612c-.16-.206-.313-.413-.466-.627-.153-.207-.298-.42-.443-.635-.146-.214-.283-.436-.421-.65-.138-.222-.268-.443-.398-.665s-.252-.451-.374-.68a28.82 28.82 0 0 1-.352-.69 19.685 19.685 0 0 1-.627-1.414c-.1-.237-.191-.482-.276-.726-.084-.245-.168-.49-.244-.734a21.35 21.35 0 0 1-.222-.75c-.069-.252-.13-.504-.191-.757a13.603 13.603 0 0 1-.16-.765c-.047-.26-.093-.52-.13-.772-.031-.199-.054-.397-.077-.596-.07.351-.138 1.62-.146 1.95zm97.67-27.69h-.03c-5.835.008-11.555 2.63-16.235 5.95a40.465 40.465 0 0 0-2.945 2.294c-2.982 2.539-5.636 5.43-8.129 8.45 7.824.81 15.448 3.09 22.384 7.188a51.218 51.218 0 0 1 5.139 3.465c1.086-2.616 2.577-5.07 4.665-6.967 2.225-2.019 4.993-3.113 7.738-3.113 2.562 0 5.101.956 7.143 3.006 5.338 5.338 5.682 13.795 2.707 20.372-1.728 3.823-4.252 7.257-7.165 10.3.13.65.237 1.308.328 1.966.26 1.912.367 3.847.29 5.781 0 .092-.007.176-.014.268 1.216-1.292 2.424-2.608 3.525-4 6.906-8.694 10.04-20.739 7.976-31.675-1.315-6.952-5.123-13.436-10.767-17.75-4.78-3.67-10.615-5.536-16.61-5.536z" fill="#ffffff"></path></svg>